# xmcd
#
# Track frame offsets: 
#        150
#        10765
#        23863
#        36418
#        45780
#        58148
#        67555
#        76298
#        86813
#        96508
#        108603
#        121305
#        134058
#        150243
#        166408
#        176218
#        189213
#        202473
#        214960
#        224613
#        236518
#        249595
#        260635
#        270598
#        280040
#
# Disc length: 3865 seconds
#
# Revision: 4
# Processed by: cddbd v1.5.2PL0 Copyright (c) Steve Scherf et al.
# Submitted via: ExactAudioCopyFreeDBPlugin 1.0
#
DISCID=6f0f1719
DTITLE=Various Artist - Stax Instrumentals
DYEAR=2003
DGENRE=Soul
TTITLE0=Booker T. and the M.G.'s - Let's Go
TTITLE1=Booker T. and the M.G.'s - Good Groove
TTITLE2=The Mar-Keys - Candy
TTITLE3=The Mar-Keys - Peppy
TTITLE4=Booker T. and the M.G.'s - Slidin'
TTITLE5=Booker T. and the M.G.'s - Put a Label on It
TTITLE6=The Mar-Keys - Raw-Hide
TTITLE7=The Mar-Keys - Gigglin'
TTITLE8=Booker T. and the M.G.'s - Jazzy
TTITLE9=Booker T. and the M.G.'s - Weird Stomp
TTITLE10=The Mar-Keys - Made in Memphis
TTITLE11=The Mar-Keys - Soul Twist
TTITLE12=Booker T. and the M.G.'s - Funky Folks Cha Cha
TTITLE13=Booker T. and the M.G.'s - Tick Tac Toe (alternate)
TTITLE14=The Mar-Keys - Settle Down
TTITLE15=The Mar-Keys - Blue Peanut
TTITLE16=Booker T. and the M.G.'s - Ain't It
TTITLE17=Booker T. and the M.G.'s - Lawn Party
TTITLE18=The Mar-Keys - Tighten Up
TTITLE19=The Mar-Keys - Saucy
TTITLE20=Booker T. and the M.G.'s - Consumption
TTITLE21=Booker T. and the M.G.'s - Three Leaf Clover
TTITLE22=The Mar-Keys - Sassy
TTITLE23=The Mar-Keys - The Floyd (with Floyd Newman)
TTITLE24=Booker T. and the M.G.'s - The Bo Vitch
EXTD=Label: Stax Records - Fantasy Inc.\n0025218860925
EXTT0=
EXTT1=
EXTT2=
EXTT3=
EXTT4=
EXTT5=
EXTT6=
EXTT7=
EXTT8=
EXTT9=
EXTT10=
EXTT11=
EXTT12=
EXTT13=
EXTT14=
EXTT15=
EXTT16=
EXTT17=
EXTT18=
EXTT19=
EXTT20=
EXTT21=
EXTT22=
EXTT23=
EXTT24=
PLAYORDER=
